<svg xmlns="http://www.w3.org/2000/svg"  viewBox="0 0 128 128" width="512px" height="512px"><path fill="#f0d6bf" d="M64,115.3L64,115.3c-4.4,0-8-3.6-8-8v-22h16v22C72,111.8,68.4,115.3,64,115.3z"/><path fill="#454b54" d="M64,118.3c-6.1,0-11-4.9-11-11v-22c0-1.7,1.3-3,3-3h16c1.7,0,3,1.3,3,3v22 C75,113.4,70.1,118.3,64,118.3z M59,88.3v19c0,2.8,2.2,5,5,5c2.8,0,5-2.2,5-5v-19H59z"/><path fill="#e280b4" d="M84,87H44c-5.5,0-10-4.5-10-10V42.7c0-16.6,13.4-30,30-30c16.6,0,30,13.4,30,30V77 C94,82.5,89.5,87,84,87"/><path fill="#f9e6f0" d="M63.9 16.7L63.9 16.7 63.9 16.7 63.9 16.7M63.9 16.7c-1.9 0-3 1.5-3 3 0 .8.3 1.5.9 2.1.6.6 1.4.9 2.2.9h0c0 0 0 0 0 0 1.7-.1 3.1-1.4 3-3 0-1.7-1.4-3-3-3M64 16.7c0 0-.1 0-.1 0M54.1 18.9c-.4 0-.9.1-1.3.3C43.8 23.6 38 32.8 38 42.7c0 1.7 1.3 3 3 3 1.7 0 3-1.4 3-3 0-7.7 4.5-14.8 11.4-18.1 1.5-.7 2.1-2.5 1.4-4C56.3 19.5 55.2 18.9 54.1 18.9"/><path fill="#454b54" d="M84,90H44c-7.2,0-13-5.8-13-13V42.7c0-18.2,14.8-33,33-33s33,14.8,33,33V77C97,84.2,91.2,90,84,90z M64,15.7c-14.9,0-27,12.1-27,27V77c0,3.9,3.1,7,7,7h40c3.9,0,7-3.1,7-7V42.7C91,27.8,78.9,15.7,64,15.7z"/><path fill="#944198" d="M52.7 77.7L52.7 77.7c-3.6 0-6.5-2.9-6.5-6.5V39.8c0-3.6 2.9-6.5 6.5-6.5l0 0c3.6 0 6.5 2.9 6.5 6.5v31.3C59.2 74.8 56.3 77.7 52.7 77.7zM75.3 77.7L75.3 77.7c-3.6 0-6.5-2.9-6.5-6.5V39.8c0-3.6 2.9-6.5 6.5-6.5l0 0c3.6 0 6.5 2.9 6.5 6.5v31.3C81.8 74.8 78.9 77.7 75.3 77.7z"/></svg>